<?xml version="1.0" encoding="utf-8"?>
<!-- Generator: Adobe Illustrator 25.4.1, SVG Export Plug-In . SVG Version: 6.00 Build 0)  -->
<svg version="1.1" id="Capa_1" xmlns="http://www.w3.org/2000/svg" xmlns:xlink="http://www.w3.org/1999/xlink" x="0px" y="0px"
	 viewBox="0 0 1232.8 1126.9" style="enable-background:new 0 0 1232.8 1126.9;" xml:space="preserve">
<style type="text/css">
	.st0{fill:#5293CF;}
</style>
<g>
	<g>
		<path class="st0" d="M35.3,922h18.4l68,114.6V922h33.6v166.9h-35.6l-68-114.6v114.6H18.1v-149C18.1,930.4,25.7,922,35.3,922z"/>
	</g>
	<g>
		<path class="st0" d="M231.1,1091.9c-39.3-1.2-58.9-24.1-58.9-68.2c0-44.2,19.9-66.3,59.4-66.5c41.2,0,60.6,25.3,58.2,76.1h-84
			c1.2,19.9,9.8,29.9,25.8,29.9c7.6,0,14.7-3.2,21.1-9.3c2.9-3.2,6.6-4.7,11-4.7h24.1C280.7,1076.7,263,1091.9,231.1,1091.9z
			 M206.3,1009.9h48.8c-2-17.2-10.1-26-24.1-26C217.1,983.9,208.8,992.7,206.3,1009.9z"/>
	</g>
	<g>
		<path class="st0" d="M414.3,1037.1c0,22.3-5.6,37.1-17.2,44.2c-11.5,6.6-24.3,10.1-38.3,10.1c-13.5,0-25.5-3.7-36.8-11
			c-11.3-7.1-16.9-21.4-16.9-43.2v-78.1h32.6v84.7c0,14.5,7.4,21.6,22.1,21.6c14.7,0,22.1-7.1,22.1-21.6v-68.5
			c-0.2-10.8,4.9-16.2,15.7-16.2h16.7V1037.1z"/>
	</g>
	<g>
		<path class="st0" d="M428.5,1021.9c1-42,23.3-62.8,66.8-62.8h4.7V993h-11c-18.2,0-27.3,9.6-27.3,28.5v67.5h-33.1V1021.9z"/>
	</g>
	<g>
		<path class="st0" d="M548.7,993h-32.6c3.9-24.1,20.9-35.8,50.8-35.8c35.8,0,54,11.8,54.7,35.8v44.2c0,35.8-21.6,51.8-56.7,54.2
			c-31.2,2.5-52.8-12-52.8-40.7c0.7-31.2,23.3-39.5,56.2-42.7c14-1.7,21.1-5.9,21.1-13c-0.7-7.4-7.6-11-21.1-11
			C556.8,983.9,550.5,986.8,548.7,993z M590,1035.7v-12c-7.6,3.2-16.4,5.9-26,7.9c-13,2.5-19.6,8.6-19.6,18.2
			c0.7,10.3,6.1,15.2,16.4,15.2C578.9,1064.9,590,1054.1,590,1035.7z"/>
	</g>
	<g>
		<path class="st0" d="M674.9,938v151h-32.7V922h16.9C667.8,922,674.9,929.4,674.9,938z"/>
	</g>
	<g>
		<path class="st0" d="M898.8,1005.5c0,41-17.7,71.4-49.8,80c-8.3,2.2-20.1,3.4-35.3,3.4h-56.2v-149c0-11.5,5.6-17.7,17.2-17.9h48.1
			C875.7,922,898.8,952.2,898.8,1005.5z M822.7,951.2H791v107.5h27.2c33.9,0,45.7-18.2,45.7-53.3
			C863.9,972.1,853.6,951.2,822.7,951.2z"/>
	</g>
	<g>
		<path class="st0" d="M948.1,993h-32.6c3.9-24.1,20.9-35.8,50.8-35.8c35.8,0,54,11.8,54.7,35.8v44.2c0,35.8-21.6,51.8-56.7,54.2
			c-31.2,2.5-52.8-12-52.8-40.7c0.7-31.2,23.3-39.5,56.2-42.7c14-1.7,21.1-5.9,21.1-13c-0.7-7.4-7.6-11-21.1-11
			C956.2,983.9,949.8,986.8,948.1,993z M989.4,1035.7v-12c-7.6,3.2-16.4,5.9-26,7.9c-13,2.5-19.6,8.6-19.6,18.2
			c0.7,10.3,6.1,15.2,16.4,15.2C978.3,1064.9,989.4,1054.1,989.4,1035.7z"/>
	</g>
	<g>
		<path class="st0" d="M1077.7,982.4h-3.4v71.9c0,5.4,3.2,8.3,9.6,8.3h10.1v24.8c-10.6,1-22.1,1-34.4-0.2s-18.2-8.8-17.9-23.3V922
			h16.9c8.6,0,15.7,7.9,15.7,16.4v20.6h19.6v7.1C1093.9,975.5,1086.8,982.4,1077.7,982.4z"/>
	</g>
	<g>
		<path class="st0" d="M1141.3,993h-32.6c3.9-24.1,20.9-35.8,50.8-35.8c35.8,0,54,11.8,54.7,35.8v44.2c0,35.8-21.6,51.8-56.7,54.2
			c-31.2,2.5-52.8-12-52.8-40.7c0.7-31.2,23.3-39.5,56.2-42.7c14-1.7,21.1-5.9,21.1-13c-0.7-7.4-7.6-11-21.1-11
			C1149.4,983.9,1143,986.8,1141.3,993z M1182.5,1035.7v-12c-7.6,3.2-16.4,5.9-26,7.9c-13,2.5-19.6,8.6-19.6,18.2
			c0.7,10.3,6.1,15.2,16.4,15.2C1171.5,1064.9,1182.5,1054.1,1182.5,1035.7z"/>
	</g>
</g>
<g>
	<g>
		<g>
			<path class="st0" d="M495.7,40.2c32,6.5,58.6,20.8,77.4,48.8c7.5,11.2,10.1,25.2,21.9,34.2c11.6,8.8,11.5,22.3,1.5,33.5
				c-4,4.5-5.9,9.4-5.9,15.2c0,32.1,0,64.2,0.1,96.4c0,6.9,2.4,11.9,8.4,16.5c8.7,6.7,15.7,16.7,14.3,27.8
				c-1.3,10.1-6,20.4-15.9,26.3c-5.2,3.1-6.9,7.4-6.9,13.2c0.1,41.2,0.1,82.3,0,123.5c0,4.2,1.1,7.4,4.2,10.8
				c11.1,12.1,12.4,26.3,3.1,35.8c-5.5,5.6-7.5,11.8-7.4,19.3c0.6,37.4-1,74.8,1.2,112.2c0.3,5.5,2,8.9,6.7,12.2
				c19.1,13.4,20.8,45.9,1.9,58.7c-8.7,5.9-10,12.3-9.7,21c0.4,13-2.6,25.6-8.5,36.9c-18.2,34.8-49.7,51-86.6,57
				c-34,5.6-67.6,2.7-99.9-10.8c-14.6-6.1-29.5-11.9-42-21.9c-5.9-4.7-11.2-6-18.7-4c-25.3,6.5-48.1,0.2-58.6-31
				c-1.7-5-4.6-8.2-9.7-10.4c-22.6-10.3-42.6-24.7-59.4-42.7c-16.4-17.7-31.5-36.6-42.1-58.9c-8.7-18.4-15.8-37.4-18.9-57.3
				c-4.1-27-2.5-54,9.1-79.5c2.3-5,2-9.1-1.8-13.7c-6.7-8.1-13.7-16.3-18.6-25.5c-18.4-34.8-14-71.5-6.9-108.1
				c0.2-1.2,0.9-2.3,1.4-3.4c5.2-10.3,10.4-20.5,15.6-30.8c12.2-24.2,27.1-45.9,52.4-58.6c17.4-8.7,21.9-22.6,20.3-42.3
				c-2.6-32.6,9.3-60.8,35.3-82.3c12.6-10.4,29.1-13.8,40.6-27.1c7.4-8.6,15.8-16.4,22.7-25.9c20.9-28.8,49.9-46.6,83.3-57.7
				c20.2-6.7,41-10.5,60.1-9.4C473.4,38,484.6,37.9,495.7,40.2z M180.2,539.8c-5.8,0.6-8.8,3.3-10.1,9c-5.3,23-3,45.4,3.2,67.9
				c8,29,22.4,54.4,41.5,77.1c14.2,17,30.8,31.5,50.3,42.5c6,3.4,11.1,3,15.6-2.7c14.8-18.7,33.3-24.8,56.2-16.3
				c4.6,1.7,8.4,0.2,12.2-4c13.2-14.4,24-31,39.7-43.2c0.5-0.4,1-0.8,1.3-1.3c4.7-6.7-7-31.7-15.3-31.8c-15-0.3-29.8-1.7-44.6-3.9
				c-7.4-1.1-12.1,1.8-16.9,8.4c-16.3,22.4-42.3,25-62.6,4.8c-16.2-16.1-8.6-50.9,13.8-58c15.4-4.9,19.7-15,21.5-27.7
				c3.7-26.1,10.8-51.5,15.3-77.5c0.3-1.8,0.3-3.7,0.8-5.5c4.7-17.2,2.7-21.4-13.4-28.2c-3.5-1.5-6.9-1.4-9.8,0.7
				c-21.5,15.2-45.5,26.7-65.8,43.7c-6.1,5.1-8.6,10.1-7.1,16.3C206.3,529.2,198.4,538,180.2,539.8z M531.8,803.7
				c21.7-11.1,37.8-39.7,35.8-64.1c-0.4-4.7-2.8-7.2-6.6-9.4c-11-6.2-19.6-14.3-20.8-27.9c-1-11.1-10.8-12.8-18.2-16.4
				c-13.9-6.8-28.4-12.5-42.4-19c-5.6-2.6-10-1.6-14.6,2.1c-15.8,12.8-33.5,16.4-52.9,9.5c-5.9-2.1-10-1.4-14.4,4.1
				c-11.8,14.8-24.3,29.1-37.1,43c-3.3,3.6-3.3,6-1.3,9.7c7,12.8,10,25.9,4.1,40.2c-2.5,5.9-0.1,11,5.5,14.3
				c23.1,13.6,46.9,25.2,74.3,27.7c7.1,0.6,14.2,1.8,21.4,1.8C487.9,818,510.7,814.5,531.8,803.7z M464.1,249.4
				c-4.3,0.8-9.4-0.5-13.7-2c-6.5-2.4-10.3,0.6-13.3,5.3c-15,23.2-29.7,46.6-44.6,69.8c-8.8,13.8-17.5,27.8-26.6,41.5
				c-2.7,4.1-4,7.8-1,11.9c3.1,4.3,6.9,4.7,12.2,3.2c21.4-5.8,41.2-15.8,61.9-23.5c24.1-9,48.2-17.8,71.8-28
				c9.7-4.2,19.9-7,29.6-11.2c4.9-2.2,8.1-5.4,7.7-10.5c-0.6-8.2,3.6-15.1,9.1-18.4c13.1-7.7,10.9-20.2,11.4-31.3
				c1-21.7,0.3-43.4,0.4-65.2c0.1-7.8-0.3-15.5-1.6-23.2c-0.9-5.6-3.6-6.7-8.5-4.4c-13.5,6.3-27.1,12.6-40.7,18.8
				c-7.6,3.5-13.8,7.8-10.6,16.3C508.3,230,489.7,244.6,464.1,249.4z M343,106.7c-5.5,5.6-9.3,12.4-13.5,18.9c-2,3-2.3,5.9-0.3,8.6
				c2.3,3.2,3.3,6.7,3.8,10.4c0.7,4.9,3.7,8,8,9.4c22.4,7.4,44.9,14.6,67.4,21.9c6.5,2.1,11.4,0.3,15.7-4.8
				c16.5-19.6,39.1-21,59.1-11.5c1.9,0.9,4.3,1.7,5.5,3.3c7.1,9.6,15.1,9.8,25.1,4.3c10-5.6,20.8-9.8,31.1-14.9c3-1.5,7.9-3.7,8-5.8
				c0.7-10.5,8.3-19.1,8.4-29.1c0.1-9.1-6.7-16.4-12.5-23.4c-19.9-24.2-47.2-32-76.8-34.6c-4.3-0.4-8.7-0.1-13.1-0.1
				C414.6,61.5,374.8,74.3,343,106.7z M568.8,351.8c-0.1-14-15.9-24-28.7-18.8c-26.4,10.7-53.8,19.4-79.4,31.7
				c-24.7,11.8-51.5,17.9-75.8,30.7c-4.8,2.5-7.4,5.3-7.1,10.6c0.1,1.6,0.1,3.1-0.1,4.7c-1.7,17.4-1.9,17.8,12.9,24.3
				c15.2,6.6,29.3,15.3,44.2,22.5c5.8,2.8,10.2,2.9,15.3-1.3c18.9-15.5,47.6-9.5,56,13.2c5.1,13.8,14,18.3,26.5,20.2
				c5.5,0.8,11,1.8,16.5,2.7c11.5,1.9,19.5-4.6,19.6-16.1c0.1-20.9,0-41.7,0-62.6C568.8,392.9,568.9,372.4,568.8,351.8z
				 M158.6,479.4c8.9,12,16.9,15.3,31.3,10.1c7-2.5,13.6-5.9,19.2-11.2c6.7-6.4,15.2-11,23.1-15.2c13.9-7.4,23.4-20.5,38-26.6
				c3.9-1.7,3.5-5.9,2.8-9.1c-4.7-20.4-0.8-38.8,12.3-55.2c3.5-4.4,3-7.9,0-12.6c-9.2-14.4-18-29-26.6-43.8
				c-2.5-4.3-6.4-5.3-10.2-5.3c-9.3-0.2-16.7-4.1-23.6-9.7c-5-4.2-9.3-4.1-15.1-0.6c-23.3,14.4-37.9,35.7-51.5,58.8
				c-12.1,20.5-12.4,42.5-14.7,62.6C144.8,443.2,146.2,462.6,158.6,479.4z M343.7,359.6c6.2,0.9,8.8-4.2,11.4-8.1
				c19.6-29.7,39.2-59.4,58.1-89.6c3.7-5.9,6.9-12.2,11.2-17.8c3.1-4,3.2-8,0.2-11.9c-3.1-4-6.4-7.6-12.6-5.5
				c-16.2,5.5-32.4,10.7-48.6,16.1c-20.6,6.9-41,14.1-61.7,20.7c-9.8,3.1-18.1,6.4-17.5,19.2c0.3,6.4-4.2,11.5-8.2,16.3
				c-4.3,5.1-3.8,10.2-0.6,15.4c7.4,12.2,14.9,24.3,22.4,36.5c2.9,4.8,6.4,8.5,15.6,6.9C321.7,355.1,332.7,358,343.7,359.6z
				 M392.4,608c3-10.2,12.7-15.8,22-18.8c12.7-4.2,26.3-5.3,38.9,2.2c7,4.2,12.8,3.5,19.3-2.3c25.7-22.9,52-45.4,78.1-67.9
				c5.5-4.7,5.3-9-1.5-11.8c-11.6-4.8-24.1-5.7-36.5-6.9c-4.3-0.4-6.9,2.5-9.4,5.2c-13.9,14.9-29.8,19.4-48.7,9.6
				c-6-3.1-11.8-1.8-17.4,2.3c-22.8,16.8-45.3,34-68.8,49.5c-15.4,10.2-28.6,23.4-45.4,31.7c-3.2,1.6-6.7,5.2-5.5,9.8
				c1.3,5.1,5.4,5.9,10.2,6.2c15.5,0.9,31,2.2,46.5,3.3C384,622,389.4,618.2,392.4,608z M313.3,589c10.2-6.4,20.4-13,29.9-20.3
				c24.8-19.1,49.5-38.3,75.8-55.3c10-6.5,18.2-13.4,15.9-27.6c-1-6.4-1.9-10.8-8.3-13.8c-18.4-8.6-36.5-18-54.8-26.9
				c-3.4-1.7-6.3,0-9.4,2.2c-10.1,7.1-20,14.8-33.1,15.7c-5,0.4-7,4.1-8,8.9c-3.7,16.9-8.7,33.7-11.3,50.6
				c-2.4,15.6-11,29.8-9.2,46.3c0.5,4.2-2.3,8.9-3.4,12.6C297.6,589.9,305.6,593.8,313.3,589z M289.8,166.9
				c-14.2-3.1-25.3,9.4-34.6,20.2c-10.3,12-14.3,26.4-15.3,41.8c-0.4,6.1,2.1,9.7,8.5,9.5c11-0.5,20,3.6,27.6,11.3
				c3,3,5.9,3.8,10,2.4c15.3-5.2,30.7-9.9,46-15c23.8-8.1,47.5-16.5,71.4-24.4c5.9-2,10.1-4.3,10.2-11.2c0.1-6.8-4.4-8.4-9.9-10.1
				c-22.7-7.3-45.2-15.2-67.8-22.7c-2.3-0.8-4.9-0.8-9-1.5C315.4,174.5,303.3,169.9,289.8,166.9z M569.3,587.1
				c0.8-15.3-1.1-30.3-0.4-45.5c0.2-3.5,0.3-7.1-3.2-9.2c-4.1-2.3-6.6,1.5-8.8,3.4c-23.7,20.1-47.2,40.4-70.8,60.7
				c-2.1,1.8-4.4,3.5-6.7,5.1c-4.7,3.2-6.8,8-4.6,13c3.8,8.7,3.3,17.7,3.1,26.6c-0.1,4.9,1.2,8.7,5.8,10.7c18.4,8,36.8,16,55.3,23.8
				c1.6,0.7,3.8,0.6,5.5,0.1c12.6-3.7,26.1-21.8,26.1-36.8C567.5,623.2,568.3,605.1,569.3,587.1z"/>
		</g>
	</g>
	<g>
		<g>
			<path class="st0" d="M677.3,638.6c-10.7,0-20.8-6.2-25.3-16.7c-10-22.8-16-48.8-15.2-66.2c1.2-29.1,14.4-56.7,38.2-79.9l1.2-1.2
				l-0.2-0.9c-1-3.9-1.9-7.9-2.5-11.9c-1.1-7,1-13.9,5.8-19.2c4.8-5.2,11.6-8,18.7-7.5c2.2,0.1,4.4,0.2,6.5,0.2
				c32.2-0.2,58.8-9.1,77.1-25.6c26.1-23.5,23.2-49.3,21.3-66.3c-0.2-2-0.4-3.8-0.6-5.5c-1.5-16.9-2.9-30.4-5.6-49.4
				c-5.5-38.9-9.4-69.8-5.2-83.8c14.1-46.8,47.7-46,58.7-45.7c6.5,0.2,10.6-3,10.7-4.8c0-0.6-0.5-1.3-0.9-1.6
				c-1.4-1.5-4.6-3.2-9.1-3.3c-11.4-0.3-28.3,1-43.8,8.9c-17.6,8.9-29.8,24.3-36.2,45.8c-4.7,15.5,0.5,52.3,5.1,84.7
				c0.4,2.7,0.7,5.2,1.1,7.7c2.3,15.6,4,28,4.5,41.8c0,1.4,0.1,2.9,0.2,4.5c0.8,16.8,2,45-18.6,63.2c-13.8,12.2-33.6,18.6-60.6,19.7
				c-11.6,0.5-34.4-7.3-46.9-23.5c-0.2-0.3-0.4-0.6-0.6-0.9c-7.2-12.2-10.7-25.6-10.2-38.7c0.8-19.6,10.1-38.1,26.9-53.4l2.2-2
				l-2.3-2c-19.7-17-30.1-38.7-29.1-61c0.8-18.7,9.3-36.4,24.5-51.2l1.9-1.9l-2.1-1.9c-18.8-16.9-28.7-38.2-27.8-60
				c2.2-52.3,49.1-87.7,114-86.2c44.6,1.1,75.4,15.3,93.8,43.4c19.8-2.5,41.6,1.5,62.1,11.5c21.1,10.3,37.3,25.7,43.5,41.1
				c14.6,36.4-0.2,73.9-45.3,114.6c-7.4,6.7-15.3,12.7-23.5,17.9c-1.7,1.1-2.3,2.1-2.3,2.7c0,0.6,0.6,1.5,1.6,2.3
				c2,1.6,5.1,2.6,8.4,2.7c3.2,0.1,6.2-0.7,8.4-2.1c9-5.7,17.7-12.3,25.8-19.5c20.8-18.8,35.4-41.1,43.4-66.5
				c2.2-7.1,7.6-12.6,14.6-15c7.1-2.4,14.7-1.3,20.8,2.9c29.4,20.4,47.6,48.3,51.3,78.4c2.7,21.8-2.7,43.4-15,60.4
				c12.1,16.9,14.1,36,5.4,54.4c-16.6,35-67.9,59-122,57.1c-3.7-0.1-7-2.7-7.9-6.3c-6-22.7-20.2-36.9-20.4-37
				c-3.2-3.1-10.9-4.4-16.5-1.6c-2,1-2.9,2.2-3,2.9c-0.2,0.9,0.7,1.9,1.1,2.3c11.1,12,24.5,42.3,18,69.5c-3,12.5-7.4,25.6-19.1,36.2
				c-12.1,10.9-30.1,17.6-56.6,21.2c-27.6,3.7-30,17.8-32.3,31.4c-2.8,16.4-6.7,38.9-41.8,62.3c-13.5,9-30.1,15.4-47.7,22.2
				c-3.3,1.3-6.7,2.6-10.2,4C684.2,638,680.7,638.6,677.3,638.6z M696.4,452.1c-1.8,0-3.5,0.7-4.7,2.1c-0.7,0.8-1.9,2.6-1.5,5.1
				c0.5,3.4,1.3,6.8,2.1,10.1l1.5,5.7c0.8,3-0.1,6.1-2.3,8.3l-4.8,4.7c-20.6,20.1-32,43.8-33.1,68.4c-0.6,14.5,5.1,38.7,13.8,58.7
				c2.3,5.3,8.4,7.8,13.8,5.7c3.5-1.4,6.9-2.7,10.3-4c16.7-6.5,32.4-12.6,44.4-20.5c29.1-19.4,32-36.2,34.5-51
				c2.5-15,6.8-40,46.7-45.4c22.7-3.1,38.3-8.7,47.6-17c7.8-7,11.2-16.1,13.9-27.4c5.1-21.7-6.7-46.3-13.9-54.1
				c-4.5-4.8-6.4-11-5.3-16.9c1.1-6.3,5.4-11.7,12.1-15.1c11.8-6,27.3-4,36.1,4.6c0.7,0.6,15.1,15,23,38.6
				c21.9-0.1,43.6-4.8,61.7-13.4c18.4-8.8,32-20.9,38.3-34.1c6.7-14.1,4.2-28.5-7.2-41.5c-2.8-3.2-2.8-8,0-11.2
				c12.4-14.2,17.8-32.9,15.4-52.7c-3.1-25.3-18.8-48.9-44.1-66.6c-1.7-1.2-3.7-1.5-5.6-0.8c-1.1,0.4-3.1,1.4-3.9,4
				c-8.9,28.3-25.1,53.1-48.2,74c-8.8,7.9-18.2,15.1-28.1,21.3c-5,3.2-11.4,4.8-17.8,4.7c-7.1-0.2-13.7-2.4-18.6-6.4
				c-5.4-4.3-8.3-10.3-8-16.5c0.4-6.4,4.1-12.3,10.3-16.2c7.3-4.6,14.5-10,21.2-16.1c58.1-52.6,45.1-85,40.9-95.7
				c-4.6-11.4-18.1-23.8-35.2-32.2c-19-9.3-39.8-12.6-57.2-9.1c-3.6,0.7-7.2-0.9-9-4.1c-14.8-25.9-41.8-39-82.6-39.9
				c-55.1-1.3-94.8,27.4-96.6,69.9c-0.7,16.7,7.2,33.2,22.2,46.6l8.9,8c1.8,1.6,2.8,3.8,2.8,6.2c0,2.4-0.9,4.6-2.6,6.3l-8.5,8.2
				C666.7,217,660,230.7,659.4,245c-0.7,17,7.5,33.8,23.3,47.4l9.6,8.3c1.8,1.6,2.9,3.9,2.9,6.3c0,2.4-1,4.8-2.8,6.4l-9.2,8.4
				c-13.4,12.2-20.7,26.6-21.4,41.5c-0.4,9.9,2.1,19.6,7.5,28.9c9,11.2,26.1,16.8,32.4,16.5c23-0.9,39.3-5.9,50-15.4
				c14.5-12.8,13.5-35,12.9-49.7c-0.1-1.7-0.1-3.2-0.2-4.7c-0.4-12.8-2.1-24.8-4.3-39.9c-0.4-2.5-0.7-5.1-1.1-7.8
				c-5.3-37.5-10.3-72.9-4.6-92c7.9-26.2,22.9-45.1,44.8-56.1c18.6-9.4,38.5-11,51.8-10.7c8.5,0.2,16.2,3.4,21.2,8.7
				c3.7,4,5.6,8.9,5.4,14c-0.5,12.2-12.8,21.4-28.1,21c-10.3-0.2-31.7-0.8-42,33.6c-3.4,11.5,2.1,50.6,5.8,76.5
				c2.7,19.3,4.2,33.1,5.7,50.3c0.1,1.6,0.3,3.3,0.5,5.1c2,18,5.8,51.4-26.8,80.8c-21.4,19.3-52,29.7-88.4,29.9
				c-2.5,0-5.1-0.1-7.7-0.2C696.7,452.1,696.5,452.1,696.4,452.1z"/>
		</g>
		<g>
			<path class="st0" d="M765.6,859.7c-8.4,0-16.9-0.6-25.2-1.8c-29.8-4.3-56.9-16-78.2-34c-30.4-25.7-43.4-58.9-36.5-93.5
				c4-20,14.4-39.4,30-55.8c15.3-16.1,34.1-28.1,54.6-34.5c0,0,0,0,0,0c19.1-6.1,36.5-14.3,51.6-24.3c39-26,43.1-49.8,46-67.2
				c1.5-8.7,2.4-12.8,4.6-16.1c3.4-5.2,8.3-5.9,12-6.4c27.5-3.7,48.1-10.2,62.9-19.9c2.2-1.4,4.8-1.7,7.3-0.9
				c16.3,5.4,33.1,8.3,50.1,8.7c47,1.1,82.5-15.5,84-16.3c2.2-1,3.3-2.4,3.5-3.2c0.1-0.6-0.4-1.3-0.9-1.8c-3-3.1-10.6-4.6-16.3-1.9
				c-2,1-50.1,23-103.2,8.6c-2.6-0.7-4.7-2.6-5.7-5.1c-1-2.5-0.7-5.3,0.7-7.6c5.6-9,13-22.8,12.5-38.4c-0.1-2.3,0.8-4.6,2.4-6.3
				s3.9-2.6,6.2-2.5c69.3,1.4,128.1-25.8,143.1-66.3c2.5-6.8,8.6-11.7,15.8-12.6c7.1-0.9,14.1,2.2,18.2,8.1
				c25.6,36.7,31.5,75.5,17,112.4c-23.5,59.8-100.2,111.8-195.6,132.4c-32.8,7.1-57.8,31.9-58.1,57.7c0,4,0.7,10.4,4.2,17.8
				c1.2,2.4,1.1,5.3-0.2,7.7c-1.3,2.4-3.6,4-6.3,4.4c-11.3,1.6-28.9,4.9-47.9,11.6c-2.9,1-6.1,0.4-8.4-1.6c-2.3-2-3.3-5.1-2.7-8.1
				c4-18.9,0.7-34.6,0.7-34.7c-0.4-2.1-5.4-5.3-12.3-4.7c-4.2,0.4-6.9,2.2-8,3.6c-0.6,0.8-0.5,1.2-0.4,1.3l0,0
				c0.5,2.6,9.4,48.2-19.2,71.1c-10.8,8.6-23.6,24.3-27.1,42.5c0,0.2-0.1,0.6,0.5,1.4c1,1.4,3.8,3.2,8.1,3.7c0.5,0,1,0.1,1.4,0.1
				c6,0.2,10.3-2.6,10.7-4.6c5.4-27.5,24.6-47.8,57.2-60.4c27-10.5,56.7-12.7,66.5-13.4c2.1-0.2,4.2,0.5,5.8,1.7
				c13.1,10,31.3,18,54.1,23.8c1.2,0.3,2.5,0.5,3.8,0.5c5.3,0.1,9.5-2,10.5-4.1c0.2-0.5,0.2-0.8,0-1.2c-0.5-1.2-2.5-2.9-6-3.8
				c-24.1-6.1-64.6-21.2-64.2-54.2c0.2-21.9,19.8-43,45.6-49c66.2-15.5,117.3-39.5,151.7-71.5c5.7-5.3,13.5-7.2,21-5.1
				c7.4,2,13,7.6,15.2,14.9c7.8,26.7,3.4,51.2-12.8,70.8c-12.5,15.2-31.7,27.2-55.6,34.7c-21,6.6-44,9.2-64.8,7.3
				c-6.6-0.5-11.5,2.7-11.9,4.6c0,0.1-0.1,0.6,0.5,1.4c1.1,1.4,3.9,3.2,8.3,3.6c4.9,0.4,9.7,0.7,14.5,0.8
				c12.3,0.3,24.5-0.5,36.4-2.2c8.6-1.3,17.3,1.6,23.3,7.9c6.1,6.3,8.7,14.8,7.1,23.3c-4.6,25.3-22.8,50.1-48.7,66.3
				c-34.9,21.9-80.9,27.3-130.1,15.5c-9.4,24.9-33.7,45.3-68,56.6C803.6,856.8,784.5,859.7,765.6,859.7z M715.5,656.3L715.5,656.3
				c-36.2,11.5-66.2,43.4-73,77.5c-4,20-1.9,49.6,30.8,77.2c18.8,15.9,42.9,26.3,69.6,30.1c24.3,3.5,50.1,1.3,72.8-6.2
				c31.8-10.5,54-30.2,59.3-52.7c0.5-2.2,2-4.2,3.9-5.4c2-1.2,4.4-1.5,6.6-0.9c47.5,13.2,91.8,9.1,124.5-11.4
				c21.9-13.7,37.2-34.3,41-55c0.6-3.1-0.4-6.2-2.6-8.5c-2.2-2.3-5.3-3.4-8.5-2.9c-12.8,1.9-26,2.7-39.3,2.4
				c-5.1-0.1-10.3-0.4-15.5-0.9c-8.5-0.7-15.8-4.5-20.3-10.2c-3.3-4.3-4.7-9.5-3.8-14.6c2-11.6,15.2-19.8,30-18.7
				c46.8,4.2,88.6-14.9,105.9-35.8c12.6-15.3,15.8-33.9,9.6-55.2c-0.7-2.2-2.4-3-3.3-3.3c-0.8-0.2-3-0.6-4.9,1.2
				c-36.6,34-90.2,59.5-159.4,75.6c-17.7,4.1-32.3,18.8-32.4,32.6c-0.2,15.6,18.5,29.2,51.4,37.5c8.1,2,14.4,6.9,17.3,13.2
				c2.4,5.2,2.3,10.8-0.3,15.9c-4.2,8.5-14.5,13.9-26.2,13.6c-2.6-0.1-5.2-0.4-7.6-1c-23.6-6-43-14.3-57.6-24.8
				c-11.3,0.9-36.2,3.5-58.5,12.1c-26.8,10.4-42.5,26.5-46.6,47.8c-2.1,11-13.8,18.7-27.7,18.4c-0.9,0-1.8-0.1-2.6-0.2
				c0,0-0.1,0-0.1,0c-8.5-0.9-15.8-4.7-20.1-10.5c-3.3-4.4-4.5-9.6-3.5-14.8c3.8-19.3,16.2-38.9,33.2-52.6
				c8.3-6.6,13.1-17.5,14.3-32.2c0.9-11.9-1-21.8-1-22.2c0,0,0,0,0,0c-1.1-5.1,0.2-10.4,3.4-14.8c4.2-5.8,11.5-9.6,20-10.5
				c14.8-1.5,28.2,6.5,30.6,18c0.1,0.6,2.6,12.1,1.3,27.8c10.2-3,19.7-5,27.7-6.5c-1.6-6-2-11.1-2-14.9
				c0.4-34.1,30.5-65.3,71.5-74.1c42.7-9.2,82.6-25.4,115.2-46.6c33.8-22,57.4-48.1,68.1-75.4c12.5-31.8,7.4-64.2-15.1-96.5
				c-0.5-0.7-1.2-1-2.1-0.9c-0.6,0.1-1.6,0.4-2,1.7c-9.1,24.4-30,44.7-60.5,58.6c-25.9,11.8-57.7,18.4-90.5,18.8
				c-1.2,11.4-5.2,21.5-8.9,28.9c42.8,7.4,80.2-9.8,80.6-9.9c11.8-5.6,27.6-3.1,35.9,5.6c4.4,4.7,6.3,10.8,5.2,16.6
				c-1.2,6.5-5.9,12.1-12.9,15.4c-1.6,0.7-38.2,18-86.8,18c-1.6,0-3.2,0-4.9-0.1c-17.3-0.4-34.5-3.2-51.2-8.3
				c-16.6,9.8-38.4,16.5-66.4,20.3c-0.1,0-0.3,0-0.4,0.1c-0.6,2.4-1.4,6.8-1.7,8.4c-3.1,18.1-8.3,48.5-53.4,78.5
				C754.9,640.8,736.1,649.7,715.5,656.3z"/>
		</g>
	</g>
</g>
</svg>
